<?xml version="1.0" encoding="UTF-8" standalone="no"?>
<!-- Created with Inkscape (http://www.inkscape.org/) -->

<svg
   version="1.1"
   id="svg2"
   width="294.97498"
   height="155.84146"
   viewBox="0 0 294.97498 155.84146"
   sodipodi:docname="images.jpeg"
   xmlns:inkscape="http://www.inkscape.org/namespaces/inkscape"
   xmlns:sodipodi="http://sodipodi.sourceforge.net/DTD/sodipodi-0.dtd"
   xmlns="http://www.w3.org/2000/svg"
   xmlns:svg="http://www.w3.org/2000/svg">
  <defs
     id="defs6" />
  <sodipodi:namedview
     id="namedview4"
     pagecolor="#ffffff"
     bordercolor="#000000"
     borderopacity="0.25"
     inkscape:showpageshadow="2"
     inkscape:pageopacity="0.0"
     inkscape:pagecheckerboard="0"
     inkscape:deskcolor="#d1d1d1"
     showgrid="false" />
  <g
     inkscape:groupmode="layer"
     inkscape:label="Image"
     id="g8"
     transform="translate(-1.6814293,-18.501804)">
    <path
       style="fill:#000000"
       d="m 246.11073,173.02718 c -5.07337,-2.25488 -7.735,-5.97862 -8.27262,-11.57378 -1.21935,-12.68998 9.17746,-23.34686 21.14759,-21.67657 2.26877,0.31658 6.95601,1.73118 10.41609,3.14355 11.36709,4.63994 19.20245,4.13612 22.1793,-1.42617 1.8529,-3.46218 1.24763,-8.7893 -1.19287,-10.49869 -5.17918,-3.62764 -13.17288,-1.05742 -17.07794,5.49108 l -2.42006,4.05828 -3.17566,-2.67215 c -4.37863,-3.68437 -6.10383,-7.45738 -6.10383,-13.34907 0,-5.85037 -2.04909,-7.66311 -7.63715,-6.7563 -2.24076,0.36363 -3.35543,0.14961 -3.34061,-0.64141 0.0458,-2.44527 3.73962,-5.89133 7.04989,-6.57702 l 3.42787,-0.71005 -0.15673,-19.450027 c -0.17419,-21.61746 -1.6093,-31.15355 -5.82293,-38.69255 -1.40224,-2.50889 -2.36339,-4.74776 -2.13588,-4.97527 1.16095,-1.16095 8.57464,2.08889 11.28869,4.94847 4.16689,4.39031 6.35605,8.89536 8.39178,17.26932 1.54023,6.33571 1.76747,6.7153 2.39455,4 3.44878,-14.93355 8.11336,-24.1935 13.62213,-27.0422 6.57209,-3.39856 10.25372,2.12549 6.39271,9.59186 -1.81831,3.51623 -3.21572,3.78791 -3.65477,0.71056 -0.79967,-5.60504 -7.45066,-2.34851 -11.13945,5.45423 -4.25941,9.00974 -5.68026,18.76643 -5.67855,38.993387 0.002,24.5439 0.33837,25.21097 14.23026,28.22787 2.97156,0.64533 5.78282,4.93329 5.74623,8.76463 -0.0404,4.23339 -3.6218,10.41637 -7.3782,12.73796 -1.99998,1.23605 -6.51079,2.73974 -10.02401,3.34153 -5.54919,0.95054 -7.78012,0.79705 -16.99531,-1.16931 -6.27956,-1.33995 -11.82116,-1.99694 -13.58188,-1.61022 -4.41568,0.96985 -6.99864,4.85646 -6.99864,10.53097 0,4.17009 0.42552,5.13516 3.42572,7.76937 5.89283,5.17397 13.70523,5.39093 17.56209,0.48772 2.41266,-3.06719 2.56288,-6.05713 0.45549,-9.06585 -2.12273,-3.03062 -5.97045,-2.87381 -8.0689,0.32884 -1.22959,1.87659 -1.96298,2.25452 -2.77305,1.42901 -1.57542,-1.60543 2.83568,-4.98036 6.50943,-4.98036 3.53353,0 6.88922,3.14318 6.88922,6.45295 0,8.19061 -9.02529,12.90202 -17.5,9.13541 z M 71.458971,155.10758 C 52.459408,136.7181 53.186279,138.51525 52.785587,108.93882 c -0.210223,-15.517267 0.06428,-25.309497 0.776639,-27.704927 1.480075,-4.977 4.864945,-8.7989 13.940602,-15.7405 4.184347,-3.20044 8.683961,-6.98114 9.999143,-8.40157 l 2.391241,-2.58259 6.009559,4.2148 c 3.305258,2.31813 7.1792,5.98193 8.60876,8.14176 l 2.5992,3.92697 v 25.57303 c 0,31.299897 0.197009,30.742387 -13.145757,37.200657 -4.65488,2.25309 -8.705672,3.85427 -9.001761,3.55819 -0.296088,-0.29609 0.826159,-1.24396 2.493883,-2.10637 5.781926,-2.98995 6.153635,-4.37127 6.153635,-22.8677 0,-16.965917 -0.495469,-19.805787 -3.913343,-22.429947 -2.215403,-1.70093 -6.036162,-1.57696 -6.725031,0.2182 -0.934946,2.43643 -3.546286,1.82078 -3.181177,-0.75 0.258049,-1.81695 1.056007,-2.31061 4.145994,-2.56492 2.276733,-0.18738 4.793735,0.31887 6.214817,1.25 1.313605,0.86071 2.629206,1.56492 2.923557,1.56492 0.294351,0 0.535183,-2.94293 0.535183,-6.53984 0,-7.89195 -2.278671,-12.90375 -7.427401,-16.33614 -3.080575,-2.05366 -3.789157,-2.18932 -5.223241,-1 -3.918027,3.2493 -4.349358,6.79752 -4.349358,35.778757 0,16.20353 0.420146,29.07209 0.998874,30.59426 0.549381,1.44498 4.342415,6.13722 8.428966,10.42721 4.08655,4.28998 8.137056,9.49197 9.001125,11.55998 1.628094,3.89658 2.153791,13.03757 0.797978,13.87551 -0.425182,0.26278 -6.895598,-5.44816 -14.378703,-12.69098 z M 206.7126,154.21094 c -1.31896,-1.62039 -3.30798,-3.28274 -4.42003,-3.69411 -1.80668,-0.66834 -1.53222,-1.08487 2.5783,-3.91298 2.53012,-1.74077 4.98613,-3.16503 5.45781,-3.16503 0.47168,0 2.4156,1.30158 4.31982,2.89239 l 3.46223,2.8924 -2,2.21553 c -1.1,1.21854 -3.125,3.00358 -4.5,3.96674 -2.45524,1.71986 -2.54293,1.69847 -4.89813,-1.19494 z M 25.610731,142.30427 c -1.375,-0.55427 -4.4125,-0.86 -6.75,-0.6794 -4.97868,0.38466 -5.52244,-1.00452 -1.83612,-4.69084 4.27705,-4.27705 8.60396,-4.36051 18.41692,-0.35524 3.03073,1.23703 3.45866,1.18465 4.75,-0.58136 1.97637,-2.70285 1.77862,-3.5551 -0.8308,-3.58057 -6.631,-0.0647 -15.72385,-7.6211 -17.68987,-14.70071 -0.57694,-2.07753 -1.05149,-11.02281 -1.05455,-19.878387 -0.005,-15.15985 0.13724,-16.36967 2.43766,-20.69616 l 2.44324,-4.5951 -4.69324,0.53254 c -2.58128,0.2929 -5.81824,0.0603 -7.19324,-0.51683 -2.12034,-0.89001 -1.87015,-0.96214 1.64742,-0.47497 8.60356,1.19154 15.93812,-3.87311 13.4661,-9.29861 -0.85966,-1.88675 -1.70853,-2.42747 -3.19895,-2.03772 -2.4817,0.64898 -2.09087,-1.1191 0.64959,-2.9387 1.58167,-1.05019 2.4297,-1.05696 4.44519,-0.0355 2.07679,1.05253 2.47695,1.9515 2.40819,5.41011 l -0.0825,4.14783 3.03626,-2.55484 c 2.72491,-2.29286 3.60501,-2.49051 8.582464,-1.92745 3.050409,0.34507 7.008697,0.60409 8.796197,0.5756 4.133112,-0.0659 4.250211,1.85987 0.376704,6.19508 -3.843924,4.3021 -8.812572,4.44898 -13.053535,0.38588 -6.46473,-6.19361 -7.72566,-0.903 -6.44212,27.02999 l 0.89066,19.383157 3.02375,3.02375 c 1.9477,1.9477 4.543424,3.28518 7.294078,3.75838 l 4.270326,0.73462 -2.636375,5 c -6.079219,11.5295 -13.920589,16.4101 -21.473489,13.36545 z m 190.514959,-3.63438 c 0.83929,-2.05209 2.46663,-4.51857 3.6163,-5.48107 2.73875,-2.29287 8.7231,-2.20171 11.8223,0.18008 l 2.45355,1.88561 -3.59133,3.69746 c -3.50214,3.60563 -3.67983,3.66546 -7.15416,2.40913 -2.75742,-0.9971 -4.14037,-1.02518 -6.11773,-0.12423 l -2.55491,1.16409 z m -63.30592,-0.21551 c -5.7932,-1.37256 -8.81255,-5.1477 -10.6854,-13.36011 l -1.10481,-4.84455 -5.45942,4.22975 c -3.00267,2.32636 -7.75785,6.45278 -10.56706,9.16981 l -5.10766,4.94007 -3.53837,-4.13379 c -1.9461,-2.27358 -4.03515,-6.10672 -4.64234,-8.51808 -0.66251,-2.63106 -1.10398,-14.63064 -1.10398,-30.007217 0,-25.82851 -0.45353,-29.49144 -3.65155,-29.49144 -1.10876,0 -0.52537,-1.16865 1.95265,-3.91152 1.94361,-2.15134 4.03681,-4.85134 4.65155,-6 0.61474,-1.14867 1.75398,-2.08848 2.53164,-2.08848 2.34549,0 6.38175,6.27693 7.55546,11.74975 l 1.10323,5.1442 5.12636,-3.68292 c 2.8195,-2.02561 7.69462,-6.06068 10.8336,-8.96682 l 5.70724,-5.2839 3.55064,4.14813 c 2.41074,2.8164 3.90889,5.87375 4.66651,9.5232 l 1.11586,5.37507 5.82315,-4.48081 c 3.20273,-2.46444 8.36347,-6.80252 11.46832,-9.64017 l 5.64516,-5.15937 2.55741,2.38682 c 1.40657,1.31275 3.5132,4.18682 4.68138,6.38682 1.97548,3.72033 2.15014,5.81785 2.49811,30 0.20577,14.299997 0.79973,26.518447 1.3199,27.152097 0.65756,0.80101 -1.42852,3.06088 -6.84542,7.41571 -4.28516,3.44498 -9.20208,7.57728 -10.9265,9.18289 -3.06057,2.84971 -3.20931,2.88101 -6.24058,1.31348 -8.84867,-4.57582 -8.52912,-12.6648 0.99378,-25.15655 3.95846,-5.19254 4.75035,-7.75299 2.77534,-8.97361 -0.77719,-0.48033 -0.71696,-0.92493 0.20225,-1.49304 4.09171,-2.528807 3.73821,3.17003 -0.62109,10.01268 -5.24347,8.23052 -4.30982,14.51366 2.50997,16.89105 l 3.01563,1.05125 v -27.90093 c 0,-29.299377 -0.31046,-31.657977 -4.53109,-34.423447 -2.06335,-1.35195 -2.66197,-1.15563 -8.34252,2.73598 l -6.11968,4.19244 -0.003,30.815737 c -0.002,19.33632 0.38226,31.53629 1.03182,32.75 1.12026,2.09322 1.06144,2.10782 -3.82614,0.94982 z m -14.47142,-17.43633 3.23762,-2.07923 0.0124,-23.299657 c 0.01,-18.5117 -0.28826,-23.88104 -1.45063,-26.12882 -2.23253,-4.31723 -4.05432,-4.41242 -9.91927,-0.51831 l -5.30287,3.52091 -0.63452,21.21294 c -0.68022,22.740987 -0.0844,28.155457 3.41006,30.986387 2.06489,1.67283 2.33719,1.67732 4.79935,0.0792 1.43564,-0.93182 4.06719,-2.62987 5.84788,-3.77344 z m 68.52136,15.18998 c -3.92231,-4.18701 -4.25898,-6.975 -4.25898,-35.26921 0,-15.053387 -0.42422,-28.485587 -0.94272,-29.849327 -0.51849,-1.36374 -1.89477,-2.7817 -3.0584,-3.15102 -2.06678,-0.65597 -2.05077,-0.7342 0.69272,-3.3842 1.54462,-1.49198 4.29736,-4.42411 6.1172,-6.51584 3.24051,-3.72465 3.35058,-3.76534 5.33256,-1.97168 4.45182,4.02885 4.85864,7.0372 4.85864,35.9291 0,16.005007 0.41899,28.414807 1.01204,29.974637 0.55662,1.46403 1.92138,2.89966 3.03279,3.19031 1.78515,0.46682 1.34652,1.24254 -3.76204,6.65323 -3.18053,3.36863 -6.03373,6.24594 -6.34043,6.394 -0.3067,0.14807 -1.51422,-0.75193 -2.68338,-2 z m 29.71521,-0.42733 c -1.87976,-1.28803 -3.11591,-2.34188 -2.747,-2.34188 0.36892,0 0.0187,-1.56055 -0.77822,-3.46788 -1.1788,-2.82127 -1.44897,-10.53406 -1.44897,-41.365137 0,-36.5457 -0.0723,-37.98912 -2.02609,-40.47301 -1.11434,-1.41666 -2.92851,-2.86217 -4.03149,-3.21224 -1.80732,-0.57362 -1.48373,-1.20764 3.27609,-6.41889 5.09546,-5.57873 5.37495,-5.73536 7.93495,-4.44686 1.4594,0.73454 3.7094,3.03394 5,5.10978 2.3347,3.75519 2.34906,3.97446 2.84654,43.44541 l 0.5,39.671167 2.32521,2.47334 c 1.55472,1.65376 1.95376,2.70289 1.20425,3.16611 -0.61652,0.38103 -2.81218,2.83235 -4.87924,5.44738 l -3.75828,4.75459 z M 6.9100107,69.188823 c -2.47327,-2.71542 -4.31344,-6.14262 -4.26014,-7.93426 0.0215,-0.72365 0.70626,0.25926 1.52163,2.18426 0.81537,1.925 2.71026,4.51027 4.21086,5.74503 1.5006,1.23477 2.2443103,2.24727 1.6526803,2.25 -0.5916203,0.003 -1.9978903,-1.00753 -3.1250303,-2.24503 z m -5.22033,-10.8185 c -0.19465,-3.86718 3.08952,-11.70245 6.14737,-14.66624 6.8823103,-6.67059 16.4769203,-7.81321 31.5958403,-3.76274 19.799742,5.3045 31.152684,1.52989 29.791703,-9.9051 -0.601458,-5.05347 -4.081968,-8.49782 -10.266443,-10.15978 -3.653513,-0.98181 -4.162191,-1.31927 -2.065301,-1.37014 7.975453,-0.19349 13.711724,5.84571 13.708566,14.4325 -0.0041,11.10239 -5.240181,19.14374 -14.001572,21.50293 -6.003931,1.61669 -11.681931,0.70024 -24.920693,-4.02229 -18.79809,-6.70565 -24.9968303,-5.30811 -28.9163503,6.51936 -0.5468,1.65 -1.0297,2.29418 -1.07312,1.4315 z M 203.86393,47.188823 c -1.77025,-1.2375 -3.22642,-2.75829 -3.23592,-3.37954 -0.01,-0.62124 1.89522,-2.68695 4.23272,-4.59047 l 4.25,-3.46093 2.39813,2.92749 c 1.31896,1.61012 3.32261,3.26948 4.45255,3.68747 1.86989,0.69172 1.66347,1.04319 -2.29817,3.91298 -5.18817,3.7583 -5.65346,3.80117 -9.79931,0.903 z M 47.833237,34.882123 c -1.222378,-0.85619 -2.222506,-1.98119 -2.222506,-2.5 0,-0.51882 0.926532,-0.0168 2.058961,1.11566 3.203732,3.20373 8.026239,2.3107 9.981936,-1.84846 1.473291,-3.13323 2.959103,-3.40629 2.959103,-0.54383 0,4.4803 -8.279182,6.92737 -12.777494,3.77663 z m -2.222506,-8.38428 c 0,-0.51754 0.444846,-1.21591 0.988546,-1.55194 0.56686,-0.35034 0.734507,0.0511 0.393011,0.94098 -0.664791,1.73242 -1.381557,2.04939 -1.381557,0.61096 z m 5.733333,-6.18311 c 0.678334,-0.68341 1.485241,-0.99067 1.793128,-0.68278 0.307888,0.30789 -0.247112,0.86705 -1.233333,1.24258 -1.425198,0.54268 -1.540062,0.42782 -0.559795,-0.5598 z"
       id="path293" />
  </g>
</svg>
